<?xml version="1.0" encoding="utf-8"?>
<!-- Generator: Adobe Illustrator 24.1.2, SVG Export Plug-In . SVG Version: 6.00 Build 0)  -->
<svg version="1.1" id="Layer_1" xmlns="http://www.w3.org/2000/svg" xmlns:xlink="http://www.w3.org/1999/xlink" x="0px" y="0px"
	 viewBox="0 0 5464 3072" style="enable-background:new 0 0 5464 3072;" xml:space="preserve">
<style type="text/css">
	.st0{opacity:0.75;}
	.st1{fill:#208080;}
	.st2{fill:#802040;}
	.st3{fill:#200080;}
</style>
<g>
	<g class="st0">
		<path class="st1" d="M3235.13,26.13c-169.42,0-332.32,27.92-484.37,79.41c596,201.82,1024.98,765.78,1024.98,1429.96
			s-428.98,1228.12-1024.98,1429.96c152.03,51.49,314.95,79.41,484.37,79.41c833.56,0,1509.37-675.79,1509.37-1509.37
			S4068.69,26.13,3235.13,26.13z"/>
	</g>
	<path class="st2" d="M1725.76,1535.5c0-664.14,429-1228.12,1025-1429.96c-152.03-51.49-314.95-79.41-484.39-79.41
		C1432.77,26.13,757,701.9,757,1535.5s675.77,1509.37,1509.37,1509.37c169.44,0,332.34-27.92,484.39-79.41
		C2154.77,2763.62,1725.76,2199.64,1725.76,1535.5z"/>
	<path class="st3" d="M3775.74,1535.5c0-664.16-428.98-1228.12-1024.98-1429.96c-596,201.82-1025,765.8-1025,1429.96
		s429,1228.12,1025,1429.96C3346.76,2763.62,3775.74,2199.66,3775.74,1535.5z"/>
</g>
</svg>
